<svg xmlns="http://www.w3.org/2000/svg"  viewBox="0 0 120 120" width="60px" height="60px" baseProfile="basic"><polygon points="120,41 60,110 0,41 20,21 100,21" opacity=".35"/><polygon fill="#ff1200" points="120,37 60,106 0,37 20,17 100,17"/><path fill="#ffc400" d="M77.272,25h8.56l-2.248,5.993C83.585,30.993,81.983,27.881,77.272,25z M98.8,27.114l0.191,0.255 v11.509H80.866c0,0-4.531-12.89-23.562-12.89c-10.875,0-19.031,4.099-19.031,9.537c0,3.625,6.839,7.469,16.808,7.469 c9.511,0,35.874,0.311,38.278,12.453l15.709-18.065L98.8,27.114z M59.116,70.868c0,0,23.562,1.812,23.562-5.438 c0-4.531-19.938-5.438-27.188-5.438c-12.61,0-22.471-1.222-28.538-4.189l11.858,13.637c1.364-2.652,5.085-3.478,8.178-3.478 C56.405,65.963,59.116,70.868,59.116,70.868z M20.147,46.4c0-4.938,5.429-15.294,16.904-21.4H23.314L10.933,37.381l9.367,10.772 C20.199,47.591,20.147,47.008,20.147,46.4z M60.022,79.931c-5.354,0-9.931-0.607-13.5-1.622L60,93.808l13.79-15.859 C70.748,78.755,65.393,79.931,60.022,79.931z"/><path d="M84.707,28l1.125-3h-8.56c1.67,1.021,2.943,2.069,3.899,3H84.707z" opacity=".35"/><polygon points="98.991,30.305 107.672,38.986 109.067,37.381 98.8,27.114 98.991,27.368" opacity=".35"/><path d="M57.303,28.988c19.031,0,23.562,12.89,23.562,12.89h18.125v-3H80.866c0,0-4.531-12.89-23.562-12.89 c-10.875,0-19.031,4.099-19.031,9.537c0,0.434,0.104,0.87,0.293,1.303C40.072,32.258,47.595,28.988,57.303,28.988z" opacity=".35"/><path d="M55.491,59.993c-12.61,0-22.471-1.222-28.538-4.189l3.936,4.526 c6.046,1.866,14.427,2.663,24.602,2.663c6.535,0,23.373,0.738,26.631,4.202c0.356-0.519,0.557-1.103,0.557-1.764 C82.678,60.9,62.741,59.993,55.491,59.993z" opacity=".35"/><path d="M46.522,78.309l3.263,3.753c2.957,0.552,6.393,0.869,10.236,0.869 c3.775,0,7.524-0.582,10.486-1.207l3.282-3.774c-3.042,0.805-8.397,1.982-13.768,1.982C54.668,79.931,50.091,79.324,46.522,78.309 z" opacity=".35"/><path d="M23.314,28h9.009c1.448-1.071,3.012-2.087,4.729-3H23.314L10.933,37.381l1.395,1.605L23.314,28z" opacity=".35"/><path fill="#ffa400" d="M20.263,48.111l0.036,0.041c-0.008-0.046-0.011-0.094-0.019-0.14 C20.276,48.045,20.268,48.079,20.263,48.111z"/></svg>